<mxfile host="app.diagrams.net" modified="2024-03-16T15:36:54.208Z" agent="Mozilla/5.0 (Windows NT 10.0; Win64; x64; rv:123.0) Gecko/20100101 Firefox/123.0" etag="EVdrW3Dywsmc9MlgIrXS" version="24.0.7" type="github">
  <diagram name="第 1 页" id="TJoWFfwJXKNT_mt5XgPP">
    <mxGraphModel dx="2300" dy="770" grid="0" gridSize="10" guides="1" tooltips="1" connect="1" arrows="1" fold="1" page="0" pageScale="1" pageWidth="827" pageHeight="1169" math="0" shadow="0">
      <root>
        <mxCell id="0" />
        <mxCell id="1" parent="0" />
        <mxCell id="PRGRgoTXFhKFeBUIvJjT-1" value="" style="shape=flexArrow;endArrow=classic;html=1;rounded=0;" parent="1" edge="1">
          <mxGeometry width="50" height="50" relative="1" as="geometry">
            <mxPoint x="-413" y="291" as="sourcePoint" />
            <mxPoint x="-357" y="291" as="targetPoint" />
          </mxGeometry>
        </mxCell>
        <mxCell id="PRGRgoTXFhKFeBUIvJjT-2" value="" style="endArrow=classic;html=1;rounded=0;" parent="1" edge="1">
          <mxGeometry width="50" height="50" relative="1" as="geometry">
            <mxPoint x="-700" y="291" as="sourcePoint" />
            <mxPoint x="-700" y="252" as="targetPoint" />
          </mxGeometry>
        </mxCell>
        <mxCell id="PRGRgoTXFhKFeBUIvJjT-3" value="" style="endArrow=classic;html=1;rounded=0;" parent="1" edge="1">
          <mxGeometry width="50" height="50" relative="1" as="geometry">
            <mxPoint x="-737" y="291" as="sourcePoint" />
            <mxPoint x="-455" y="291" as="targetPoint" />
          </mxGeometry>
        </mxCell>
        <mxCell id="PRGRgoTXFhKFeBUIvJjT-4" value="" style="endArrow=classic;html=1;rounded=0;" parent="1" edge="1">
          <mxGeometry width="50" height="50" relative="1" as="geometry">
            <mxPoint x="-679" y="289" as="sourcePoint" />
            <mxPoint x="-679" y="250" as="targetPoint" />
          </mxGeometry>
        </mxCell>
        <mxCell id="PRGRgoTXFhKFeBUIvJjT-5" value="" style="endArrow=classic;html=1;rounded=0;" parent="1" edge="1">
          <mxGeometry width="50" height="50" relative="1" as="geometry">
            <mxPoint x="-660" y="292" as="sourcePoint" />
            <mxPoint x="-660" y="253" as="targetPoint" />
          </mxGeometry>
        </mxCell>
        <mxCell id="PRGRgoTXFhKFeBUIvJjT-6" value="" style="endArrow=classic;html=1;rounded=0;" parent="1" edge="1">
          <mxGeometry width="50" height="50" relative="1" as="geometry">
            <mxPoint x="-635" y="290" as="sourcePoint" />
            <mxPoint x="-635" y="322" as="targetPoint" />
          </mxGeometry>
        </mxCell>
        <mxCell id="PRGRgoTXFhKFeBUIvJjT-7" value="" style="endArrow=classic;html=1;rounded=0;" parent="1" edge="1">
          <mxGeometry width="50" height="50" relative="1" as="geometry">
            <mxPoint x="-615" y="291" as="sourcePoint" />
            <mxPoint x="-615" y="323" as="targetPoint" />
          </mxGeometry>
        </mxCell>
        <mxCell id="PRGRgoTXFhKFeBUIvJjT-9" value="" style="endArrow=classic;html=1;rounded=0;" parent="1" edge="1">
          <mxGeometry width="50" height="50" relative="1" as="geometry">
            <mxPoint x="-600" y="291" as="sourcePoint" />
            <mxPoint x="-600" y="323" as="targetPoint" />
          </mxGeometry>
        </mxCell>
        <mxCell id="PRGRgoTXFhKFeBUIvJjT-10" value="" style="endArrow=classic;html=1;rounded=0;" parent="1" edge="1">
          <mxGeometry width="50" height="50" relative="1" as="geometry">
            <mxPoint x="-577" y="290" as="sourcePoint" />
            <mxPoint x="-577" y="251" as="targetPoint" />
          </mxGeometry>
        </mxCell>
        <mxCell id="PRGRgoTXFhKFeBUIvJjT-11" value="" style="endArrow=classic;html=1;rounded=0;" parent="1" edge="1">
          <mxGeometry width="50" height="50" relative="1" as="geometry">
            <mxPoint x="-555" y="290" as="sourcePoint" />
            <mxPoint x="-555" y="251" as="targetPoint" />
          </mxGeometry>
        </mxCell>
        <mxCell id="PRGRgoTXFhKFeBUIvJjT-13" value="" style="endArrow=classic;html=1;rounded=0;dashed=1;" parent="1" edge="1">
          <mxGeometry width="50" height="50" relative="1" as="geometry">
            <mxPoint x="-532" y="291" as="sourcePoint" />
            <mxPoint x="-532" y="252" as="targetPoint" />
          </mxGeometry>
        </mxCell>
        <mxCell id="PRGRgoTXFhKFeBUIvJjT-14" value="" style="endArrow=classic;html=1;rounded=1;curved=0;dashed=1;" parent="1" edge="1">
          <mxGeometry width="50" height="50" relative="1" as="geometry">
            <mxPoint x="-512" y="290" as="sourcePoint" />
            <mxPoint x="-512" y="251" as="targetPoint" />
          </mxGeometry>
        </mxCell>
        <mxCell id="PRGRgoTXFhKFeBUIvJjT-38" value="" style="endArrow=classic;html=1;rounded=0;" parent="1" edge="1">
          <mxGeometry width="50" height="50" relative="1" as="geometry">
            <mxPoint x="-695" y="439" as="sourcePoint" />
            <mxPoint x="-695" y="400" as="targetPoint" />
          </mxGeometry>
        </mxCell>
        <mxCell id="PRGRgoTXFhKFeBUIvJjT-39" value="" style="endArrow=classic;html=1;rounded=0;" parent="1" edge="1">
          <mxGeometry width="50" height="50" relative="1" as="geometry">
            <mxPoint x="-732" y="439" as="sourcePoint" />
            <mxPoint x="-450" y="439" as="targetPoint" />
          </mxGeometry>
        </mxCell>
        <mxCell id="PRGRgoTXFhKFeBUIvJjT-40" value="" style="endArrow=classic;html=1;rounded=0;dashed=1;" parent="1" edge="1">
          <mxGeometry width="50" height="50" relative="1" as="geometry">
            <mxPoint x="-674" y="437" as="sourcePoint" />
            <mxPoint x="-674" y="398" as="targetPoint" />
          </mxGeometry>
        </mxCell>
        <mxCell id="PRGRgoTXFhKFeBUIvJjT-41" value="" style="endArrow=classic;html=1;rounded=0;dashed=1;" parent="1" edge="1">
          <mxGeometry width="50" height="50" relative="1" as="geometry">
            <mxPoint x="-655" y="440" as="sourcePoint" />
            <mxPoint x="-655" y="401" as="targetPoint" />
          </mxGeometry>
        </mxCell>
        <mxCell id="PRGRgoTXFhKFeBUIvJjT-42" value="" style="endArrow=classic;html=1;rounded=0;dashed=1;" parent="1" edge="1">
          <mxGeometry width="50" height="50" relative="1" as="geometry">
            <mxPoint x="-630" y="438" as="sourcePoint" />
            <mxPoint x="-630" y="470" as="targetPoint" />
          </mxGeometry>
        </mxCell>
        <mxCell id="PRGRgoTXFhKFeBUIvJjT-43" value="" style="endArrow=classic;html=1;rounded=0;dashed=1;" parent="1" edge="1">
          <mxGeometry width="50" height="50" relative="1" as="geometry">
            <mxPoint x="-610" y="439" as="sourcePoint" />
            <mxPoint x="-610" y="471" as="targetPoint" />
          </mxGeometry>
        </mxCell>
        <mxCell id="PRGRgoTXFhKFeBUIvJjT-44" value="" style="endArrow=classic;html=1;rounded=0;" parent="1" edge="1">
          <mxGeometry width="50" height="50" relative="1" as="geometry">
            <mxPoint x="-595" y="439" as="sourcePoint" />
            <mxPoint x="-595" y="471" as="targetPoint" />
          </mxGeometry>
        </mxCell>
        <mxCell id="PRGRgoTXFhKFeBUIvJjT-45" value="" style="endArrow=classic;html=1;rounded=0;" parent="1" edge="1">
          <mxGeometry width="50" height="50" relative="1" as="geometry">
            <mxPoint x="-572" y="438" as="sourcePoint" />
            <mxPoint x="-572" y="399" as="targetPoint" />
          </mxGeometry>
        </mxCell>
        <mxCell id="PRGRgoTXFhKFeBUIvJjT-46" value="" style="endArrow=classic;html=1;rounded=0;" parent="1" edge="1">
          <mxGeometry width="50" height="50" relative="1" as="geometry">
            <mxPoint x="-550" y="438" as="sourcePoint" />
            <mxPoint x="-550" y="399" as="targetPoint" />
          </mxGeometry>
        </mxCell>
        <mxCell id="PRGRgoTXFhKFeBUIvJjT-47" value="" style="endArrow=classic;html=1;rounded=0;" parent="1" edge="1">
          <mxGeometry width="50" height="50" relative="1" as="geometry">
            <mxPoint x="-527" y="439" as="sourcePoint" />
            <mxPoint x="-527" y="400" as="targetPoint" />
          </mxGeometry>
        </mxCell>
        <mxCell id="PRGRgoTXFhKFeBUIvJjT-48" value="" style="endArrow=classic;html=1;rounded=0;" parent="1" edge="1">
          <mxGeometry width="50" height="50" relative="1" as="geometry">
            <mxPoint x="-507" y="438" as="sourcePoint" />
            <mxPoint x="-507" y="399" as="targetPoint" />
          </mxGeometry>
        </mxCell>
        <mxCell id="PRGRgoTXFhKFeBUIvJjT-49" value="&lt;font style=&quot;font-size: 16px;&quot;&gt;&lt;b&gt;旋转&lt;/b&gt;&lt;/font&gt;" style="text;html=1;align=center;verticalAlign=middle;resizable=0;points=[];autosize=1;strokeColor=none;fillColor=none;" parent="1" vertex="1">
          <mxGeometry x="-410.5" y="242" width="50" height="32" as="geometry" />
        </mxCell>
        <mxCell id="PRGRgoTXFhKFeBUIvJjT-63" value="" style="endArrow=classic;html=1;rounded=0;" parent="1" edge="1">
          <mxGeometry width="50" height="50" relative="1" as="geometry">
            <mxPoint x="-190" y="298" as="sourcePoint" />
            <mxPoint x="-190" y="259" as="targetPoint" />
          </mxGeometry>
        </mxCell>
        <mxCell id="PRGRgoTXFhKFeBUIvJjT-64" value="" style="endArrow=classic;html=1;rounded=0;" parent="1" edge="1">
          <mxGeometry width="50" height="50" relative="1" as="geometry">
            <mxPoint x="-285" y="300" as="sourcePoint" />
            <mxPoint y="300" as="targetPoint" />
          </mxGeometry>
        </mxCell>
        <mxCell id="PRGRgoTXFhKFeBUIvJjT-65" value="" style="endArrow=classic;html=1;rounded=0;" parent="1" edge="1">
          <mxGeometry width="50" height="50" relative="1" as="geometry">
            <mxPoint x="-169" y="296" as="sourcePoint" />
            <mxPoint x="-169" y="257" as="targetPoint" />
          </mxGeometry>
        </mxCell>
        <mxCell id="PRGRgoTXFhKFeBUIvJjT-66" value="" style="endArrow=classic;html=1;rounded=0;" parent="1" edge="1">
          <mxGeometry width="50" height="50" relative="1" as="geometry">
            <mxPoint x="-150" y="299" as="sourcePoint" />
            <mxPoint x="-150" y="260" as="targetPoint" />
          </mxGeometry>
        </mxCell>
        <mxCell id="PRGRgoTXFhKFeBUIvJjT-67" value="" style="endArrow=classic;html=1;rounded=0;" parent="1" edge="1">
          <mxGeometry width="50" height="50" relative="1" as="geometry">
            <mxPoint x="-125" y="297" as="sourcePoint" />
            <mxPoint x="-125" y="329" as="targetPoint" />
          </mxGeometry>
        </mxCell>
        <mxCell id="PRGRgoTXFhKFeBUIvJjT-68" value="" style="endArrow=classic;html=1;rounded=0;" parent="1" edge="1">
          <mxGeometry width="50" height="50" relative="1" as="geometry">
            <mxPoint x="-105" y="298" as="sourcePoint" />
            <mxPoint x="-105" y="330" as="targetPoint" />
          </mxGeometry>
        </mxCell>
        <mxCell id="PRGRgoTXFhKFeBUIvJjT-69" value="" style="endArrow=classic;html=1;rounded=0;" parent="1" edge="1">
          <mxGeometry width="50" height="50" relative="1" as="geometry">
            <mxPoint x="-90" y="298" as="sourcePoint" />
            <mxPoint x="-90" y="330" as="targetPoint" />
          </mxGeometry>
        </mxCell>
        <mxCell id="PRGRgoTXFhKFeBUIvJjT-70" value="" style="endArrow=classic;html=1;rounded=0;" parent="1" edge="1">
          <mxGeometry width="50" height="50" relative="1" as="geometry">
            <mxPoint x="-67" y="297" as="sourcePoint" />
            <mxPoint x="-67" y="258" as="targetPoint" />
          </mxGeometry>
        </mxCell>
        <mxCell id="PRGRgoTXFhKFeBUIvJjT-71" value="" style="endArrow=classic;html=1;rounded=0;" parent="1" edge="1">
          <mxGeometry width="50" height="50" relative="1" as="geometry">
            <mxPoint x="-45" y="297" as="sourcePoint" />
            <mxPoint x="-45" y="258" as="targetPoint" />
          </mxGeometry>
        </mxCell>
        <mxCell id="PRGRgoTXFhKFeBUIvJjT-72" value="" style="endArrow=classic;html=1;rounded=0;dashed=1;" parent="1" edge="1">
          <mxGeometry width="50" height="50" relative="1" as="geometry">
            <mxPoint x="-210" y="301" as="sourcePoint" />
            <mxPoint x="-210" y="258" as="targetPoint" />
          </mxGeometry>
        </mxCell>
        <mxCell id="PRGRgoTXFhKFeBUIvJjT-73" value="" style="endArrow=classic;html=1;rounded=0;dashed=1;" parent="1" edge="1">
          <mxGeometry width="50" height="50" relative="1" as="geometry">
            <mxPoint x="-235" y="302" as="sourcePoint" />
            <mxPoint x="-235" y="260" as="targetPoint" />
          </mxGeometry>
        </mxCell>
        <mxCell id="PRGRgoTXFhKFeBUIvJjT-75" value="" style="shape=flexArrow;endArrow=classic;html=1;rounded=0;" parent="1" edge="1">
          <mxGeometry width="50" height="50" relative="1" as="geometry">
            <mxPoint x="-417" y="431" as="sourcePoint" />
            <mxPoint x="-361" y="431" as="targetPoint" />
          </mxGeometry>
        </mxCell>
        <mxCell id="PRGRgoTXFhKFeBUIvJjT-76" value="&lt;font style=&quot;font-size: 16px;&quot;&gt;&lt;b&gt;遮蔽&lt;/b&gt;&lt;/font&gt;" style="text;html=1;align=center;verticalAlign=middle;resizable=0;points=[];autosize=1;strokeColor=none;fillColor=none;" parent="1" vertex="1">
          <mxGeometry x="-414.5" y="382" width="50" height="32" as="geometry" />
        </mxCell>
        <mxCell id="PRGRgoTXFhKFeBUIvJjT-88" value="" style="endArrow=classic;html=1;rounded=0;" parent="1" edge="1">
          <mxGeometry width="50" height="50" relative="1" as="geometry">
            <mxPoint x="-264" y="438" as="sourcePoint" />
            <mxPoint x="-264" y="401" as="targetPoint" />
          </mxGeometry>
        </mxCell>
        <mxCell id="PRGRgoTXFhKFeBUIvJjT-89" value="" style="endArrow=classic;html=1;rounded=0;" parent="1" edge="1">
          <mxGeometry width="50" height="50" relative="1" as="geometry">
            <mxPoint x="-287" y="437" as="sourcePoint" />
            <mxPoint x="2" y="437" as="targetPoint" />
          </mxGeometry>
        </mxCell>
        <mxCell id="PRGRgoTXFhKFeBUIvJjT-94" value="" style="endArrow=classic;html=1;rounded=0;" parent="1" edge="1">
          <mxGeometry width="50" height="50" relative="1" as="geometry">
            <mxPoint x="-164" y="440" as="sourcePoint" />
            <mxPoint x="-164" y="472" as="targetPoint" />
          </mxGeometry>
        </mxCell>
        <mxCell id="PRGRgoTXFhKFeBUIvJjT-95" value="" style="endArrow=classic;html=1;rounded=0;" parent="1" edge="1">
          <mxGeometry width="50" height="50" relative="1" as="geometry">
            <mxPoint x="-141" y="439" as="sourcePoint" />
            <mxPoint x="-141" y="400" as="targetPoint" />
          </mxGeometry>
        </mxCell>
        <mxCell id="PRGRgoTXFhKFeBUIvJjT-96" value="" style="endArrow=classic;html=1;rounded=0;" parent="1" edge="1">
          <mxGeometry width="50" height="50" relative="1" as="geometry">
            <mxPoint x="-119" y="439" as="sourcePoint" />
            <mxPoint x="-119" y="400" as="targetPoint" />
          </mxGeometry>
        </mxCell>
        <mxCell id="PRGRgoTXFhKFeBUIvJjT-97" value="" style="endArrow=classic;html=1;rounded=0;" parent="1" edge="1">
          <mxGeometry width="50" height="50" relative="1" as="geometry">
            <mxPoint x="-96" y="440" as="sourcePoint" />
            <mxPoint x="-96" y="401" as="targetPoint" />
          </mxGeometry>
        </mxCell>
        <mxCell id="PRGRgoTXFhKFeBUIvJjT-98" value="" style="endArrow=classic;html=1;rounded=0;" parent="1" edge="1">
          <mxGeometry width="50" height="50" relative="1" as="geometry">
            <mxPoint x="-76" y="439" as="sourcePoint" />
            <mxPoint x="-76" y="400" as="targetPoint" />
          </mxGeometry>
        </mxCell>
        <mxCell id="PRGRgoTXFhKFeBUIvJjT-99" value="" style="endArrow=classic;html=1;rounded=0;" parent="1" edge="1">
          <mxGeometry width="50" height="50" relative="1" as="geometry">
            <mxPoint x="-692" y="572" as="sourcePoint" />
            <mxPoint x="-692" y="533" as="targetPoint" />
          </mxGeometry>
        </mxCell>
        <mxCell id="PRGRgoTXFhKFeBUIvJjT-100" value="" style="endArrow=classic;html=1;rounded=0;" parent="1" edge="1">
          <mxGeometry width="50" height="50" relative="1" as="geometry">
            <mxPoint x="-729" y="572" as="sourcePoint" />
            <mxPoint x="-447" y="572" as="targetPoint" />
          </mxGeometry>
        </mxCell>
        <mxCell id="PRGRgoTXFhKFeBUIvJjT-101" value="" style="endArrow=classic;html=1;rounded=0;" parent="1" edge="1">
          <mxGeometry width="50" height="50" relative="1" as="geometry">
            <mxPoint x="-671" y="570" as="sourcePoint" />
            <mxPoint x="-671" y="531" as="targetPoint" />
          </mxGeometry>
        </mxCell>
        <mxCell id="PRGRgoTXFhKFeBUIvJjT-102" value="" style="endArrow=classic;html=1;rounded=0;" parent="1" edge="1">
          <mxGeometry width="50" height="50" relative="1" as="geometry">
            <mxPoint x="-652" y="573" as="sourcePoint" />
            <mxPoint x="-652" y="534" as="targetPoint" />
          </mxGeometry>
        </mxCell>
        <mxCell id="PRGRgoTXFhKFeBUIvJjT-103" value="" style="endArrow=classic;html=1;rounded=0;" parent="1" edge="1">
          <mxGeometry width="50" height="50" relative="1" as="geometry">
            <mxPoint x="-627" y="571" as="sourcePoint" />
            <mxPoint x="-627" y="603" as="targetPoint" />
          </mxGeometry>
        </mxCell>
        <mxCell id="PRGRgoTXFhKFeBUIvJjT-104" value="" style="endArrow=classic;html=1;rounded=0;" parent="1" edge="1">
          <mxGeometry width="50" height="50" relative="1" as="geometry">
            <mxPoint x="-607" y="572" as="sourcePoint" />
            <mxPoint x="-607" y="604" as="targetPoint" />
          </mxGeometry>
        </mxCell>
        <mxCell id="PRGRgoTXFhKFeBUIvJjT-105" value="" style="endArrow=classic;html=1;rounded=0;" parent="1" edge="1">
          <mxGeometry width="50" height="50" relative="1" as="geometry">
            <mxPoint x="-592" y="572" as="sourcePoint" />
            <mxPoint x="-592" y="604" as="targetPoint" />
          </mxGeometry>
        </mxCell>
        <mxCell id="PRGRgoTXFhKFeBUIvJjT-106" value="" style="endArrow=classic;html=1;rounded=0;" parent="1" edge="1">
          <mxGeometry width="50" height="50" relative="1" as="geometry">
            <mxPoint x="-569" y="571" as="sourcePoint" />
            <mxPoint x="-569" y="532" as="targetPoint" />
          </mxGeometry>
        </mxCell>
        <mxCell id="PRGRgoTXFhKFeBUIvJjT-107" value="" style="endArrow=classic;html=1;rounded=0;" parent="1" edge="1">
          <mxGeometry width="50" height="50" relative="1" as="geometry">
            <mxPoint x="-547" y="571" as="sourcePoint" />
            <mxPoint x="-547" y="532" as="targetPoint" />
          </mxGeometry>
        </mxCell>
        <mxCell id="PRGRgoTXFhKFeBUIvJjT-108" value="" style="endArrow=classic;html=1;rounded=0;" parent="1" edge="1">
          <mxGeometry width="50" height="50" relative="1" as="geometry">
            <mxPoint x="-524" y="572" as="sourcePoint" />
            <mxPoint x="-524" y="533" as="targetPoint" />
          </mxGeometry>
        </mxCell>
        <mxCell id="PRGRgoTXFhKFeBUIvJjT-109" value="" style="endArrow=classic;html=1;rounded=0;" parent="1" edge="1">
          <mxGeometry width="50" height="50" relative="1" as="geometry">
            <mxPoint x="-504" y="571" as="sourcePoint" />
            <mxPoint x="-504" y="532" as="targetPoint" />
          </mxGeometry>
        </mxCell>
        <mxCell id="PRGRgoTXFhKFeBUIvJjT-110" value="" style="shape=flexArrow;endArrow=classic;html=1;rounded=0;" parent="1" edge="1">
          <mxGeometry width="50" height="50" relative="1" as="geometry">
            <mxPoint x="-414" y="564" as="sourcePoint" />
            <mxPoint x="-358" y="564" as="targetPoint" />
          </mxGeometry>
        </mxCell>
        <mxCell id="PRGRgoTXFhKFeBUIvJjT-111" value="&lt;font style=&quot;font-size: 16px;&quot;&gt;&lt;b&gt;翻转&lt;/b&gt;&lt;/font&gt;" style="text;html=1;align=center;verticalAlign=middle;resizable=0;points=[];autosize=1;strokeColor=none;fillColor=none;" parent="1" vertex="1">
          <mxGeometry x="-411.5" y="515" width="50" height="32" as="geometry" />
        </mxCell>
        <mxCell id="PRGRgoTXFhKFeBUIvJjT-120" value="" style="endArrow=classic;html=1;rounded=0;" parent="1" edge="1">
          <mxGeometry width="50" height="50" relative="1" as="geometry">
            <mxPoint x="-235" y="580" as="sourcePoint" />
            <mxPoint x="-235" y="541" as="targetPoint" />
          </mxGeometry>
        </mxCell>
        <mxCell id="PRGRgoTXFhKFeBUIvJjT-121" value="" style="endArrow=classic;html=1;rounded=0;" parent="1" edge="1">
          <mxGeometry width="50" height="50" relative="1" as="geometry">
            <mxPoint x="-285" y="580" as="sourcePoint" />
            <mxPoint x="11" y="580" as="targetPoint" />
          </mxGeometry>
        </mxCell>
        <mxCell id="PRGRgoTXFhKFeBUIvJjT-122" value="" style="endArrow=classic;html=1;rounded=0;" parent="1" edge="1">
          <mxGeometry width="50" height="50" relative="1" as="geometry">
            <mxPoint x="-214" y="578" as="sourcePoint" />
            <mxPoint x="-214" y="539" as="targetPoint" />
          </mxGeometry>
        </mxCell>
        <mxCell id="PRGRgoTXFhKFeBUIvJjT-123" value="" style="endArrow=classic;html=1;rounded=0;" parent="1" edge="1">
          <mxGeometry width="50" height="50" relative="1" as="geometry">
            <mxPoint x="-195" y="581" as="sourcePoint" />
            <mxPoint x="-195" y="542" as="targetPoint" />
          </mxGeometry>
        </mxCell>
        <mxCell id="PRGRgoTXFhKFeBUIvJjT-124" value="" style="endArrow=classic;html=1;rounded=0;" parent="1" edge="1">
          <mxGeometry width="50" height="50" relative="1" as="geometry">
            <mxPoint x="-170" y="579" as="sourcePoint" />
            <mxPoint x="-170" y="611" as="targetPoint" />
          </mxGeometry>
        </mxCell>
        <mxCell id="PRGRgoTXFhKFeBUIvJjT-125" value="" style="endArrow=classic;html=1;rounded=0;" parent="1" edge="1">
          <mxGeometry width="50" height="50" relative="1" as="geometry">
            <mxPoint x="-150" y="580" as="sourcePoint" />
            <mxPoint x="-150" y="612" as="targetPoint" />
          </mxGeometry>
        </mxCell>
        <mxCell id="PRGRgoTXFhKFeBUIvJjT-126" value="" style="endArrow=classic;html=1;rounded=0;" parent="1" edge="1">
          <mxGeometry width="50" height="50" relative="1" as="geometry">
            <mxPoint x="-135" y="580" as="sourcePoint" />
            <mxPoint x="-135" y="612" as="targetPoint" />
          </mxGeometry>
        </mxCell>
        <mxCell id="PRGRgoTXFhKFeBUIvJjT-127" value="" style="endArrow=classic;html=1;rounded=0;" parent="1" edge="1">
          <mxGeometry width="50" height="50" relative="1" as="geometry">
            <mxPoint x="-112" y="579" as="sourcePoint" />
            <mxPoint x="-112" y="540" as="targetPoint" />
          </mxGeometry>
        </mxCell>
        <mxCell id="PRGRgoTXFhKFeBUIvJjT-128" value="" style="endArrow=classic;html=1;rounded=0;" parent="1" edge="1">
          <mxGeometry width="50" height="50" relative="1" as="geometry">
            <mxPoint x="-90" y="579" as="sourcePoint" />
            <mxPoint x="-90" y="540" as="targetPoint" />
          </mxGeometry>
        </mxCell>
        <mxCell id="PRGRgoTXFhKFeBUIvJjT-129" value="" style="endArrow=classic;html=1;rounded=0;" parent="1" edge="1">
          <mxGeometry width="50" height="50" relative="1" as="geometry">
            <mxPoint x="-67" y="580" as="sourcePoint" />
            <mxPoint x="-67" y="541" as="targetPoint" />
          </mxGeometry>
        </mxCell>
        <mxCell id="PRGRgoTXFhKFeBUIvJjT-130" value="" style="endArrow=classic;html=1;rounded=0;" parent="1" edge="1">
          <mxGeometry width="50" height="50" relative="1" as="geometry">
            <mxPoint x="-255" y="581" as="sourcePoint" />
            <mxPoint x="-255" y="542" as="targetPoint" />
          </mxGeometry>
        </mxCell>
        <mxCell id="PRGRgoTXFhKFeBUIvJjT-155" value="" style="endArrow=classic;html=1;rounded=0;" parent="1" edge="1">
          <mxGeometry width="50" height="50" relative="1" as="geometry">
            <mxPoint x="-686" y="714" as="sourcePoint" />
            <mxPoint x="-686" y="675" as="targetPoint" />
          </mxGeometry>
        </mxCell>
        <mxCell id="PRGRgoTXFhKFeBUIvJjT-156" value="" style="endArrow=classic;html=1;rounded=0;" parent="1" edge="1">
          <mxGeometry width="50" height="50" relative="1" as="geometry">
            <mxPoint x="-723" y="714" as="sourcePoint" />
            <mxPoint x="-441" y="714" as="targetPoint" />
          </mxGeometry>
        </mxCell>
        <mxCell id="PRGRgoTXFhKFeBUIvJjT-157" value="" style="endArrow=classic;html=1;rounded=0;" parent="1" edge="1">
          <mxGeometry width="50" height="50" relative="1" as="geometry">
            <mxPoint x="-665" y="712" as="sourcePoint" />
            <mxPoint x="-665" y="673" as="targetPoint" />
          </mxGeometry>
        </mxCell>
        <mxCell id="PRGRgoTXFhKFeBUIvJjT-158" value="" style="endArrow=classic;html=1;rounded=0;" parent="1" edge="1">
          <mxGeometry width="50" height="50" relative="1" as="geometry">
            <mxPoint x="-646" y="715" as="sourcePoint" />
            <mxPoint x="-646" y="676" as="targetPoint" />
          </mxGeometry>
        </mxCell>
        <mxCell id="PRGRgoTXFhKFeBUIvJjT-159" value="" style="endArrow=classic;html=1;rounded=0;" parent="1" edge="1">
          <mxGeometry width="50" height="50" relative="1" as="geometry">
            <mxPoint x="-621" y="713" as="sourcePoint" />
            <mxPoint x="-621" y="745" as="targetPoint" />
          </mxGeometry>
        </mxCell>
        <mxCell id="PRGRgoTXFhKFeBUIvJjT-160" value="" style="endArrow=classic;html=1;rounded=0;dashed=1;" parent="1" edge="1">
          <mxGeometry width="50" height="50" relative="1" as="geometry">
            <mxPoint x="-601" y="714" as="sourcePoint" />
            <mxPoint x="-601" y="746" as="targetPoint" />
          </mxGeometry>
        </mxCell>
        <mxCell id="PRGRgoTXFhKFeBUIvJjT-161" value="" style="endArrow=classic;html=1;rounded=0;" parent="1" edge="1">
          <mxGeometry width="50" height="50" relative="1" as="geometry">
            <mxPoint x="-586" y="714" as="sourcePoint" />
            <mxPoint x="-586" y="746" as="targetPoint" />
          </mxGeometry>
        </mxCell>
        <mxCell id="PRGRgoTXFhKFeBUIvJjT-162" value="" style="endArrow=classic;html=1;rounded=0;" parent="1" edge="1">
          <mxGeometry width="50" height="50" relative="1" as="geometry">
            <mxPoint x="-563" y="713" as="sourcePoint" />
            <mxPoint x="-563" y="674" as="targetPoint" />
          </mxGeometry>
        </mxCell>
        <mxCell id="PRGRgoTXFhKFeBUIvJjT-163" value="" style="endArrow=classic;html=1;rounded=0;" parent="1" edge="1">
          <mxGeometry width="50" height="50" relative="1" as="geometry">
            <mxPoint x="-541" y="713" as="sourcePoint" />
            <mxPoint x="-541" y="674" as="targetPoint" />
          </mxGeometry>
        </mxCell>
        <mxCell id="PRGRgoTXFhKFeBUIvJjT-164" value="" style="endArrow=classic;html=1;rounded=0;dashed=1;" parent="1" edge="1">
          <mxGeometry width="50" height="50" relative="1" as="geometry">
            <mxPoint x="-518" y="714" as="sourcePoint" />
            <mxPoint x="-518" y="675" as="targetPoint" />
          </mxGeometry>
        </mxCell>
        <mxCell id="PRGRgoTXFhKFeBUIvJjT-165" value="" style="endArrow=classic;html=1;rounded=0;" parent="1" edge="1">
          <mxGeometry width="50" height="50" relative="1" as="geometry">
            <mxPoint x="-498" y="713" as="sourcePoint" />
            <mxPoint x="-498" y="674" as="targetPoint" />
          </mxGeometry>
        </mxCell>
        <mxCell id="PRGRgoTXFhKFeBUIvJjT-166" value="" style="shape=flexArrow;endArrow=classic;html=1;rounded=0;" parent="1" edge="1">
          <mxGeometry width="50" height="50" relative="1" as="geometry">
            <mxPoint x="-408" y="706" as="sourcePoint" />
            <mxPoint x="-352" y="706" as="targetPoint" />
          </mxGeometry>
        </mxCell>
        <mxCell id="PRGRgoTXFhKFeBUIvJjT-167" value="&lt;font style=&quot;font-size: 16px;&quot;&gt;&lt;b&gt;擦除&lt;/b&gt;&lt;/font&gt;" style="text;html=1;align=center;verticalAlign=middle;resizable=0;points=[];autosize=1;strokeColor=none;fillColor=none;" parent="1" vertex="1">
          <mxGeometry x="-405.5" y="657" width="50" height="32" as="geometry" />
        </mxCell>
        <mxCell id="PRGRgoTXFhKFeBUIvJjT-168" value="" style="endArrow=classic;html=1;rounded=0;" parent="1" edge="1">
          <mxGeometry width="50" height="50" relative="1" as="geometry">
            <mxPoint x="-248" y="719" as="sourcePoint" />
            <mxPoint x="-248" y="680" as="targetPoint" />
          </mxGeometry>
        </mxCell>
        <mxCell id="PRGRgoTXFhKFeBUIvJjT-169" value="" style="endArrow=classic;html=1;rounded=0;" parent="1" edge="1">
          <mxGeometry width="50" height="50" relative="1" as="geometry">
            <mxPoint x="-285" y="719" as="sourcePoint" />
            <mxPoint x="15" y="719" as="targetPoint" />
          </mxGeometry>
        </mxCell>
        <mxCell id="PRGRgoTXFhKFeBUIvJjT-170" value="" style="endArrow=classic;html=1;rounded=0;" parent="1" edge="1">
          <mxGeometry width="50" height="50" relative="1" as="geometry">
            <mxPoint x="-227" y="717" as="sourcePoint" />
            <mxPoint x="-227" y="678" as="targetPoint" />
          </mxGeometry>
        </mxCell>
        <mxCell id="PRGRgoTXFhKFeBUIvJjT-171" value="" style="endArrow=classic;html=1;rounded=0;" parent="1" edge="1">
          <mxGeometry width="50" height="50" relative="1" as="geometry">
            <mxPoint x="-208" y="720" as="sourcePoint" />
            <mxPoint x="-208" y="681" as="targetPoint" />
          </mxGeometry>
        </mxCell>
        <mxCell id="PRGRgoTXFhKFeBUIvJjT-172" value="" style="endArrow=classic;html=1;rounded=0;" parent="1" edge="1">
          <mxGeometry width="50" height="50" relative="1" as="geometry">
            <mxPoint x="-183" y="718" as="sourcePoint" />
            <mxPoint x="-183" y="750" as="targetPoint" />
          </mxGeometry>
        </mxCell>
        <mxCell id="PRGRgoTXFhKFeBUIvJjT-174" value="" style="endArrow=classic;html=1;rounded=0;" parent="1" edge="1">
          <mxGeometry width="50" height="50" relative="1" as="geometry">
            <mxPoint x="-148" y="719" as="sourcePoint" />
            <mxPoint x="-148" y="751" as="targetPoint" />
          </mxGeometry>
        </mxCell>
        <mxCell id="PRGRgoTXFhKFeBUIvJjT-175" value="" style="endArrow=classic;html=1;rounded=0;" parent="1" edge="1">
          <mxGeometry width="50" height="50" relative="1" as="geometry">
            <mxPoint x="-125" y="718" as="sourcePoint" />
            <mxPoint x="-125" y="679" as="targetPoint" />
          </mxGeometry>
        </mxCell>
        <mxCell id="PRGRgoTXFhKFeBUIvJjT-176" value="" style="endArrow=classic;html=1;rounded=0;" parent="1" edge="1">
          <mxGeometry width="50" height="50" relative="1" as="geometry">
            <mxPoint x="-103" y="718" as="sourcePoint" />
            <mxPoint x="-103" y="679" as="targetPoint" />
          </mxGeometry>
        </mxCell>
        <mxCell id="PRGRgoTXFhKFeBUIvJjT-178" value="" style="endArrow=classic;html=1;rounded=0;" parent="1" edge="1">
          <mxGeometry width="50" height="50" relative="1" as="geometry">
            <mxPoint x="-64" y="719" as="sourcePoint" />
            <mxPoint x="-64" y="680" as="targetPoint" />
          </mxGeometry>
        </mxCell>
        <mxCell id="8GASYvxr5xbSsrr0nJ_2-1" value="&lt;div style=&quot;font-size: 20px;&quot;&gt;&lt;font style=&quot;font-size: 20px;&quot;&gt;&lt;b&gt;0&lt;/b&gt;&lt;/font&gt;&lt;/div&gt;&lt;div style=&quot;font-size: 20px;&quot;&gt;&lt;font style=&quot;font-size: 20px;&quot;&gt;&lt;b&gt;1&lt;/b&gt;&lt;/font&gt;&lt;/div&gt;&lt;div style=&quot;font-size: 20px;&quot;&gt;&lt;font style=&quot;font-size: 20px;&quot;&gt;&lt;b&gt;0&lt;/b&gt;&lt;/font&gt;&lt;/div&gt;&lt;div style=&quot;font-size: 20px;&quot;&gt;&lt;font style=&quot;font-size: 20px;&quot;&gt;&lt;b&gt;&lt;font style=&quot;font-size: 20px;&quot;&gt;0&lt;/font&gt;&lt;br&gt;&lt;/b&gt;&lt;/font&gt;&lt;/div&gt;" style="rounded=0;whiteSpace=wrap;html=1;" vertex="1" parent="1">
          <mxGeometry x="-654" y="985" width="20" height="89" as="geometry" />
        </mxCell>
        <mxCell id="8GASYvxr5xbSsrr0nJ_2-2" value="&lt;font size=&quot;1&quot;&gt;&lt;b&gt;&lt;font style=&quot;font-size: 24px;&quot;&gt;label1&lt;/font&gt;&lt;/b&gt;&lt;/font&gt;" style="text;html=1;align=center;verticalAlign=middle;resizable=0;points=[];autosize=1;strokeColor=none;fillColor=none;" vertex="1" parent="1">
          <mxGeometry x="-688.5" y="932" width="86" height="41" as="geometry" />
        </mxCell>
        <mxCell id="8GASYvxr5xbSsrr0nJ_2-3" value="&lt;div style=&quot;font-size: 20px;&quot;&gt;&lt;font style=&quot;font-size: 20px;&quot;&gt;&lt;b&gt;0&lt;/b&gt;&lt;/font&gt;&lt;/div&gt;&lt;div style=&quot;font-size: 20px;&quot;&gt;&lt;font style=&quot;font-size: 20px;&quot;&gt;&lt;b&gt;0&lt;br&gt;&lt;/b&gt;&lt;/font&gt;&lt;/div&gt;&lt;div style=&quot;font-size: 20px;&quot;&gt;&lt;font style=&quot;font-size: 20px;&quot;&gt;&lt;b&gt;1&lt;br&gt;&lt;/b&gt;&lt;/font&gt;&lt;/div&gt;&lt;div style=&quot;font-size: 20px;&quot;&gt;&lt;font style=&quot;font-size: 20px;&quot;&gt;&lt;b&gt;0&lt;br&gt;&lt;/b&gt;&lt;/font&gt;&lt;/div&gt;" style="rounded=0;whiteSpace=wrap;html=1;" vertex="1" parent="1">
          <mxGeometry x="-652" y="1285" width="21" height="96" as="geometry" />
        </mxCell>
        <mxCell id="8GASYvxr5xbSsrr0nJ_2-4" value="&lt;font size=&quot;1&quot;&gt;&lt;b style=&quot;font-size: 24px;&quot;&gt;label2&lt;/b&gt;&lt;/font&gt;" style="text;html=1;align=center;verticalAlign=middle;resizable=0;points=[];autosize=1;strokeColor=none;fillColor=none;" vertex="1" parent="1">
          <mxGeometry x="-686.5" y="1232" width="86" height="41" as="geometry" />
        </mxCell>
        <mxCell id="8GASYvxr5xbSsrr0nJ_2-5" value="" style="endArrow=classic;html=1;rounded=0;" edge="1" parent="1">
          <mxGeometry width="50" height="50" relative="1" as="geometry">
            <mxPoint x="-568" y="1023" as="sourcePoint" />
            <mxPoint x="-327" y="1025" as="targetPoint" />
          </mxGeometry>
        </mxCell>
        <mxCell id="8GASYvxr5xbSsrr0nJ_2-8" value="" style="endArrow=classic;html=1;rounded=0;" edge="1" parent="1">
          <mxGeometry width="50" height="50" relative="1" as="geometry">
            <mxPoint x="-517" y="1023" as="sourcePoint" />
            <mxPoint x="-517" y="993" as="targetPoint" />
          </mxGeometry>
        </mxCell>
        <mxCell id="8GASYvxr5xbSsrr0nJ_2-9" value="" style="endArrow=classic;html=1;rounded=0;" edge="1" parent="1">
          <mxGeometry width="50" height="50" relative="1" as="geometry">
            <mxPoint x="-440" y="1023" as="sourcePoint" />
            <mxPoint x="-440" y="993" as="targetPoint" />
          </mxGeometry>
        </mxCell>
        <mxCell id="8GASYvxr5xbSsrr0nJ_2-10" value="" style="endArrow=classic;html=1;rounded=0;" edge="1" parent="1">
          <mxGeometry width="50" height="50" relative="1" as="geometry">
            <mxPoint x="-421" y="1024" as="sourcePoint" />
            <mxPoint x="-421" y="994" as="targetPoint" />
          </mxGeometry>
        </mxCell>
        <mxCell id="8GASYvxr5xbSsrr0nJ_2-11" value="" style="endArrow=classic;html=1;rounded=0;" edge="1" parent="1">
          <mxGeometry width="50" height="50" relative="1" as="geometry">
            <mxPoint x="-406" y="1026" as="sourcePoint" />
            <mxPoint x="-406" y="993" as="targetPoint" />
          </mxGeometry>
        </mxCell>
        <mxCell id="8GASYvxr5xbSsrr0nJ_2-13" value="" style="endArrow=classic;html=1;rounded=0;" edge="1" parent="1">
          <mxGeometry width="50" height="50" relative="1" as="geometry">
            <mxPoint x="-497" y="1022" as="sourcePoint" />
            <mxPoint x="-497" y="1060" as="targetPoint" />
          </mxGeometry>
        </mxCell>
        <mxCell id="8GASYvxr5xbSsrr0nJ_2-14" value="" style="endArrow=classic;html=1;rounded=0;" edge="1" parent="1">
          <mxGeometry width="50" height="50" relative="1" as="geometry">
            <mxPoint x="-481" y="1023" as="sourcePoint" />
            <mxPoint x="-481" y="1061" as="targetPoint" />
          </mxGeometry>
        </mxCell>
        <mxCell id="8GASYvxr5xbSsrr0nJ_2-15" value="" style="endArrow=classic;html=1;rounded=0;" edge="1" parent="1">
          <mxGeometry width="50" height="50" relative="1" as="geometry">
            <mxPoint x="-463" y="1023" as="sourcePoint" />
            <mxPoint x="-463" y="1061" as="targetPoint" />
          </mxGeometry>
        </mxCell>
        <mxCell id="8GASYvxr5xbSsrr0nJ_2-16" value="" style="endArrow=classic;html=1;rounded=0;" edge="1" parent="1">
          <mxGeometry width="50" height="50" relative="1" as="geometry">
            <mxPoint x="-550.5" y="1329" as="sourcePoint" />
            <mxPoint x="-329" y="1334" as="targetPoint" />
          </mxGeometry>
        </mxCell>
        <mxCell id="8GASYvxr5xbSsrr0nJ_2-19" value="" style="endArrow=classic;html=1;rounded=0;" edge="1" parent="1">
          <mxGeometry width="50" height="50" relative="1" as="geometry">
            <mxPoint x="-499.5" y="1329" as="sourcePoint" />
            <mxPoint x="-499.5" y="1299" as="targetPoint" />
          </mxGeometry>
        </mxCell>
        <mxCell id="8GASYvxr5xbSsrr0nJ_2-20" value="" style="endArrow=classic;html=1;rounded=0;" edge="1" parent="1">
          <mxGeometry width="50" height="50" relative="1" as="geometry">
            <mxPoint x="-422.5" y="1329" as="sourcePoint" />
            <mxPoint x="-422.5" y="1299" as="targetPoint" />
          </mxGeometry>
        </mxCell>
        <mxCell id="8GASYvxr5xbSsrr0nJ_2-21" value="" style="endArrow=classic;html=1;rounded=0;" edge="1" parent="1">
          <mxGeometry width="50" height="50" relative="1" as="geometry">
            <mxPoint x="-403.5" y="1330" as="sourcePoint" />
            <mxPoint x="-403.5" y="1300" as="targetPoint" />
          </mxGeometry>
        </mxCell>
        <mxCell id="8GASYvxr5xbSsrr0nJ_2-23" value="" style="endArrow=classic;html=1;rounded=0;" edge="1" parent="1">
          <mxGeometry width="50" height="50" relative="1" as="geometry">
            <mxPoint x="-479.5" y="1330" as="sourcePoint" />
            <mxPoint x="-479.5" y="1301" as="targetPoint" />
          </mxGeometry>
        </mxCell>
        <mxCell id="8GASYvxr5xbSsrr0nJ_2-24" value="" style="endArrow=classic;html=1;rounded=0;" edge="1" parent="1">
          <mxGeometry width="50" height="50" relative="1" as="geometry">
            <mxPoint x="-463.5" y="1329" as="sourcePoint" />
            <mxPoint x="-463.5" y="1300" as="targetPoint" />
          </mxGeometry>
        </mxCell>
        <mxCell id="8GASYvxr5xbSsrr0nJ_2-25" value="" style="endArrow=classic;html=1;rounded=0;" edge="1" parent="1">
          <mxGeometry width="50" height="50" relative="1" as="geometry">
            <mxPoint x="-445.5" y="1329" as="sourcePoint" />
            <mxPoint x="-445.5" y="1367" as="targetPoint" />
          </mxGeometry>
        </mxCell>
        <mxCell id="8GASYvxr5xbSsrr0nJ_2-26" value="" style="shape=flexArrow;endArrow=classic;html=1;rounded=0;" edge="1" parent="1">
          <mxGeometry width="50" height="50" relative="1" as="geometry">
            <mxPoint x="-107" y="1111" as="sourcePoint" />
            <mxPoint x="11" y="1111" as="targetPoint" />
          </mxGeometry>
        </mxCell>
        <mxCell id="8GASYvxr5xbSsrr0nJ_2-27" value="&lt;font size=&quot;1&quot;&gt;&lt;b style=&quot;font-size: 20px;&quot;&gt;混合：比例0.5,0.5&lt;/b&gt;&lt;/font&gt;" style="text;html=1;align=center;verticalAlign=middle;resizable=0;points=[];autosize=1;strokeColor=none;fillColor=none;" vertex="1" parent="1">
          <mxGeometry x="-149" y="1065" width="179" height="36" as="geometry" />
        </mxCell>
        <mxCell id="8GASYvxr5xbSsrr0nJ_2-28" value="&lt;div style=&quot;font-size: 20px;&quot;&gt;&lt;font style=&quot;font-size: 20px;&quot;&gt;&lt;b&gt;0&lt;/b&gt;&lt;/font&gt;&lt;/div&gt;&lt;div style=&quot;font-size: 20px;&quot;&gt;&lt;font style=&quot;font-size: 20px;&quot;&gt;&lt;b&gt;0.5&lt;br&gt;&lt;/b&gt;&lt;/font&gt;&lt;/div&gt;&lt;div style=&quot;font-size: 20px;&quot;&gt;&lt;font style=&quot;font-size: 20px;&quot;&gt;&lt;b&gt;0.5&lt;br&gt;&lt;/b&gt;&lt;/font&gt;&lt;/div&gt;&lt;div style=&quot;font-size: 20px;&quot;&gt;&lt;font style=&quot;font-size: 20px;&quot;&gt;&lt;b&gt;&lt;font style=&quot;font-size: 20px;&quot;&gt;0&lt;/font&gt;&lt;br&gt;&lt;/b&gt;&lt;/font&gt;&lt;/div&gt;" style="rounded=0;whiteSpace=wrap;html=1;" vertex="1" parent="1">
          <mxGeometry x="57" y="1120" width="24" height="105" as="geometry" />
        </mxCell>
        <mxCell id="8GASYvxr5xbSsrr0nJ_2-29" value="" style="endArrow=classic;html=1;rounded=0;" edge="1" parent="1">
          <mxGeometry width="50" height="50" relative="1" as="geometry">
            <mxPoint x="143" y="1158" as="sourcePoint" />
            <mxPoint x="384" y="1162" as="targetPoint" />
          </mxGeometry>
        </mxCell>
        <mxCell id="8GASYvxr5xbSsrr0nJ_2-32" value="" style="endArrow=classic;html=1;rounded=0;" edge="1" parent="1">
          <mxGeometry width="50" height="50" relative="1" as="geometry">
            <mxPoint x="194" y="1158" as="sourcePoint" />
            <mxPoint x="194" y="1128" as="targetPoint" />
          </mxGeometry>
        </mxCell>
        <mxCell id="8GASYvxr5xbSsrr0nJ_2-33" value="" style="endArrow=classic;html=1;rounded=0;" edge="1" parent="1">
          <mxGeometry width="50" height="50" relative="1" as="geometry">
            <mxPoint x="271" y="1158" as="sourcePoint" />
            <mxPoint x="271" y="1128" as="targetPoint" />
          </mxGeometry>
        </mxCell>
        <mxCell id="8GASYvxr5xbSsrr0nJ_2-34" value="" style="endArrow=classic;html=1;rounded=0;" edge="1" parent="1">
          <mxGeometry width="50" height="50" relative="1" as="geometry">
            <mxPoint x="290" y="1159" as="sourcePoint" />
            <mxPoint x="290" y="1129" as="targetPoint" />
          </mxGeometry>
        </mxCell>
        <mxCell id="8GASYvxr5xbSsrr0nJ_2-35" value="" style="endArrow=classic;html=1;rounded=0;" edge="1" parent="1">
          <mxGeometry width="50" height="50" relative="1" as="geometry">
            <mxPoint x="305" y="1162" as="sourcePoint" />
            <mxPoint x="305" y="1141" as="targetPoint" />
          </mxGeometry>
        </mxCell>
        <mxCell id="8GASYvxr5xbSsrr0nJ_2-37" value="" style="endArrow=classic;html=1;rounded=0;" edge="1" parent="1">
          <mxGeometry width="50" height="50" relative="1" as="geometry">
            <mxPoint x="248" y="1158" as="sourcePoint" />
            <mxPoint x="248" y="1196" as="targetPoint" />
          </mxGeometry>
        </mxCell>
        <mxCell id="8GASYvxr5xbSsrr0nJ_2-38" value="&lt;font size=&quot;1&quot;&gt;&lt;b style=&quot;font-size: 24px;&quot;&gt;label&lt;/b&gt;&lt;/font&gt;" style="text;html=1;align=center;verticalAlign=middle;resizable=0;points=[];autosize=1;strokeColor=none;fillColor=none;" vertex="1" parent="1">
          <mxGeometry x="27" y="1059" width="73" height="41" as="geometry" />
        </mxCell>
        <mxCell id="8GASYvxr5xbSsrr0nJ_2-40" value="&lt;font style=&quot;font-size: 17px;&quot;&gt;&lt;b&gt;&lt;font style=&quot;font-size: 17px;&quot;&gt;&lt;span class=&quot;math math-inline&quot;&gt;&lt;span style=&quot;font-size: 20px;&quot; class=&quot;katex&quot;&gt;&lt;span aria-hidden=&quot;true&quot; class=&quot;katex-html&quot;&gt;&lt;span class=&quot;base&quot;&gt;&lt;span style=&quot;height: 0.8333em; vertical-align: -0.15em;&quot; class=&quot;strut&quot;&gt;&lt;/span&gt;&lt;span class=&quot;mord&quot;&gt;&lt;span style=&quot;margin-right: 0.13889em;&quot; class=&quot;mord mathnormal&quot;&gt;T&lt;/span&gt;&lt;span class=&quot;msupsub&quot;&gt;&lt;span class=&quot;vlist-t vlist-t2&quot;&gt;&lt;span class=&quot;vlist-r&quot;&gt;&lt;span style=&quot;height: 0.3011em;&quot; class=&quot;vlist&quot;&gt;&lt;span style=&quot;top: -2.55em; margin-left: -0.1389em; margin-right: 0.05em;&quot;&gt;&lt;span style=&quot;height: 2.7em;&quot; class=&quot;pstrut&quot;&gt;&lt;/span&gt;&lt;span class=&quot;sizing reset-size6 size3 mtight&quot;&gt;&lt;span class=&quot;mord mtight&quot;&gt;1&lt;/span&gt;&lt;/span&gt;&lt;/span&gt;&lt;/span&gt;&lt;span class=&quot;vlist-s&quot;&gt;​&lt;/span&gt;&lt;/span&gt;&lt;span class=&quot;vlist-r&quot;&gt;&lt;span style=&quot;height: 0.15em;&quot; class=&quot;vlist&quot;&gt;&lt;span&gt;&lt;/span&gt;&lt;/span&gt;&lt;/span&gt;&lt;/span&gt;&lt;/span&gt;&lt;/span&gt;&lt;span style=&quot;margin-right: 0.2778em;&quot; class=&quot;mspace&quot;&gt;&lt;/span&gt;&lt;span class=&quot;mrel&quot;&gt;=&lt;/span&gt;&lt;span style=&quot;margin-right: 0.2778em;&quot; class=&quot;mspace&quot;&gt;&lt;/span&gt;&lt;/span&gt;&lt;span class=&quot;base&quot;&gt;&lt;span style=&quot;height: 1em; vertical-align: -0.25em;&quot; class=&quot;strut&quot;&gt;&lt;/span&gt;&lt;span class=&quot;mopen&quot;&gt;[&lt;/span&gt;&lt;span class=&quot;mord&quot;&gt;1000&lt;/span&gt;&lt;span class=&quot;mpunct&quot;&gt;,&lt;/span&gt;&lt;span style=&quot;margin-right: 0.1667em;&quot; class=&quot;mspace&quot;&gt;&lt;/span&gt;&lt;span class=&quot;mord&quot;&gt;1050&lt;/span&gt;&lt;span class=&quot;mpunct&quot;&gt;,&lt;/span&gt;&lt;span style=&quot;margin-right: 0.1667em;&quot; class=&quot;mspace&quot;&gt;&lt;/span&gt;&lt;span class=&quot;mord&quot;&gt;1100&lt;/span&gt;&lt;span class=&quot;mpunct&quot;&gt;,&lt;/span&gt;&lt;span style=&quot;margin-right: 0.1667em;&quot; class=&quot;mspace&quot;&gt;&lt;/span&gt;&lt;span class=&quot;mord&quot;&gt;1150&lt;/span&gt;&lt;span class=&quot;mpunct&quot;&gt;,&lt;/span&gt;&lt;span style=&quot;margin-right: 0.1667em;&quot; class=&quot;mspace&quot;&gt;&lt;/span&gt;&lt;span class=&quot;mord&quot;&gt;1200&lt;/span&gt;&lt;span class=&quot;mpunct&quot;&gt;,&lt;/span&gt;&lt;span style=&quot;margin-right: 0.1667em;&quot; class=&quot;mspace&quot;&gt;&lt;/span&gt;&lt;span class=&quot;mord&quot;&gt;1250&lt;/span&gt;&lt;span class=&quot;mpunct&quot;&gt;,&lt;/span&gt;&lt;span style=&quot;margin-right: 0.1667em;&quot; class=&quot;mspace&quot;&gt;&lt;/span&gt;&lt;span class=&quot;mord&quot;&gt;1300&lt;/span&gt;&lt;span class=&quot;mclose&quot;&gt;]&lt;/span&gt;&lt;/span&gt;&lt;/span&gt;&lt;/span&gt;&lt;/span&gt;&lt;/font&gt;&lt;/b&gt;&lt;/font&gt;" style="text;html=1;align=center;verticalAlign=middle;resizable=0;points=[];autosize=1;strokeColor=none;fillColor=none;" vertex="1" parent="1">
          <mxGeometry x="-571" y="934" width="441" height="41" as="geometry" />
        </mxCell>
        <mxCell id="8GASYvxr5xbSsrr0nJ_2-42" value="&lt;font style=&quot;font-size: 20px;&quot;&gt;&lt;b&gt;&lt;span class=&quot;math math-inline&quot;&gt;&lt;span class=&quot;katex&quot;&gt;&lt;span aria-hidden=&quot;true&quot; class=&quot;katex-html&quot;&gt;&lt;span class=&quot;base&quot;&gt;&lt;span class=&quot;mord&quot;&gt;&lt;span style=&quot;margin-right: 0.13889em;&quot; class=&quot;mord mathnormal&quot;&gt;T&lt;/span&gt;&lt;span class=&quot;msupsub&quot;&gt;&lt;span class=&quot;vlist-t vlist-t2&quot;&gt;&lt;span class=&quot;vlist-r&quot;&gt;&lt;span style=&quot;height: 0.3175em;&quot; class=&quot;vlist&quot;&gt;&lt;span style=&quot;top: -2.55em; margin-left: -0.1389em; margin-right: 0.05em;&quot;&gt;&lt;span style=&quot;height: 2.7em;&quot; class=&quot;pstrut&quot;&gt;&lt;/span&gt;&lt;span class=&quot;sizing reset-size6 size3 mtight&quot;&gt;&lt;span class=&quot;mord mtight&quot;&gt;&lt;span class=&quot;mord text mtight&quot;&gt;&lt;span class=&quot;mord mtight&quot;&gt;mix&lt;/span&gt;&lt;/span&gt;&lt;/span&gt;&lt;/span&gt;&lt;/span&gt;&lt;/span&gt;&lt;span class=&quot;vlist-s&quot;&gt;​&lt;/span&gt;&lt;/span&gt;&lt;span class=&quot;vlist-r&quot;&gt;&lt;span style=&quot;height: 0.15em;&quot; class=&quot;vlist&quot;&gt;&lt;span&gt;&lt;/span&gt;&lt;/span&gt;&lt;/span&gt;&lt;/span&gt;&lt;/span&gt;&lt;/span&gt;&lt;span style=&quot;margin-right: 0.2778em;&quot; class=&quot;mspace&quot;&gt;&lt;/span&gt;&lt;span class=&quot;mrel&quot;&gt;=&lt;/span&gt;&lt;span style=&quot;margin-right: 0.2778em;&quot; class=&quot;mspace&quot;&gt;&lt;/span&gt;&lt;/span&gt;&lt;span class=&quot;base&quot;&gt;&lt;span style=&quot;height: 1em; vertical-align: -0.25em;&quot; class=&quot;strut&quot;&gt;&lt;/span&gt;&lt;span class=&quot;mopen&quot;&gt;[&lt;/span&gt;&lt;span class=&quot;mord&quot;&gt;1500&lt;/span&gt;&lt;span class=&quot;mpunct&quot;&gt;,&lt;/span&gt;&lt;span style=&quot;margin-right: 0.1667em;&quot; class=&quot;mspace&quot;&gt;&lt;/span&gt;&lt;span class=&quot;mord&quot;&gt;1550&lt;/span&gt;&lt;span class=&quot;mpunct&quot;&gt;,&lt;/span&gt;&lt;span style=&quot;margin-right: 0.1667em;&quot; class=&quot;mspace&quot;&gt;&lt;/span&gt;&lt;span class=&quot;mord&quot;&gt;1600&lt;/span&gt;&lt;span class=&quot;mpunct&quot;&gt;,&lt;/span&gt;&lt;span style=&quot;margin-right: 0.1667em;&quot; class=&quot;mspace&quot;&gt;&lt;/span&gt;&lt;span class=&quot;mord&quot;&gt;1650&lt;/span&gt;&lt;span class=&quot;mpunct&quot;&gt;,&lt;/span&gt;&lt;span style=&quot;margin-right: 0.1667em;&quot; class=&quot;mspace&quot;&gt;&lt;/span&gt;&lt;span class=&quot;mord&quot;&gt;1700&lt;/span&gt;&lt;span class=&quot;mpunct&quot;&gt;,&lt;/span&gt;&lt;span style=&quot;margin-right: 0.1667em;&quot; class=&quot;mspace&quot;&gt;&lt;/span&gt;&lt;span class=&quot;mord&quot;&gt;1750&lt;/span&gt;&lt;span class=&quot;mpunct&quot;&gt;,&lt;/span&gt;&lt;span style=&quot;margin-right: 0.1667em;&quot; class=&quot;mspace&quot;&gt;&lt;/span&gt;&lt;span class=&quot;mord&quot;&gt;1800&lt;/span&gt;&lt;span class=&quot;mclose&quot;&gt;]&lt;/span&gt;&lt;/span&gt;&lt;/span&gt;&lt;/span&gt;&lt;/span&gt;&lt;/b&gt;&lt;/font&gt;" style="text;html=1;align=center;verticalAlign=middle;resizable=0;points=[];autosize=1;strokeColor=none;fillColor=none;" vertex="1" parent="1">
          <mxGeometry x="125" y="1041" width="466" height="41" as="geometry" />
        </mxCell>
        <mxCell id="8GASYvxr5xbSsrr0nJ_2-43" value="&lt;font style=&quot;font-size: 17px;&quot;&gt;&lt;span style=&quot;font-size: 20px;&quot; class=&quot;math math-inline&quot;&gt;&lt;span class=&quot;katex&quot;&gt;&lt;span class=&quot;katex-mathml&quot;&gt;&lt;math xmlns=&quot;http://www.w3.org/1998/Math/MathML&quot;&gt;&lt;mrow&gt;&lt;msub&gt;&lt;mi&gt;&lt;/mi&gt;&lt;/msub&gt;&lt;/mrow&gt;&lt;/math&gt;&lt;/span&gt;&lt;b&gt;&lt;span aria-hidden=&quot;true&quot; class=&quot;katex-html&quot;&gt;&lt;span class=&quot;base&quot;&gt;&lt;span class=&quot;mord&quot;&gt;&lt;span style=&quot;margin-right: 0.13889em;&quot; class=&quot;mord mathnormal&quot;&gt;T&lt;/span&gt;&lt;span class=&quot;msupsub&quot;&gt;&lt;span class=&quot;vlist-t vlist-t2&quot;&gt;&lt;span class=&quot;vlist-r&quot;&gt;&lt;span style=&quot;height: 0.3011em;&quot; class=&quot;vlist&quot;&gt;&lt;span style=&quot;top: -2.55em; margin-left: -0.1389em; margin-right: 0.05em;&quot;&gt;&lt;span style=&quot;height: 2.7em;&quot; class=&quot;pstrut&quot;&gt;&lt;/span&gt;&lt;span class=&quot;sizing reset-size6 size3 mtight&quot;&gt;&lt;span class=&quot;mord mtight&quot;&gt;2&lt;/span&gt;&lt;/span&gt;&lt;/span&gt;&lt;/span&gt;&lt;span class=&quot;vlist-s&quot;&gt;​&lt;/span&gt;&lt;/span&gt;&lt;span class=&quot;vlist-r&quot;&gt;&lt;span style=&quot;height: 0.15em;&quot; class=&quot;vlist&quot;&gt;&lt;span&gt;&lt;/span&gt;&lt;/span&gt;&lt;/span&gt;&lt;/span&gt;&lt;/span&gt;&lt;/span&gt;&lt;span style=&quot;margin-right: 0.2778em;&quot; class=&quot;mspace&quot;&gt;&lt;/span&gt;&lt;span class=&quot;mrel&quot;&gt;=&lt;/span&gt;&lt;span style=&quot;margin-right: 0.2778em;&quot; class=&quot;mspace&quot;&gt;&lt;/span&gt;&lt;/span&gt;&lt;span class=&quot;base&quot;&gt;&lt;span style=&quot;height: 1em; vertical-align: -0.25em;&quot; class=&quot;strut&quot;&gt;&lt;/span&gt;&lt;span class=&quot;mopen&quot;&gt;[&lt;/span&gt;&lt;span class=&quot;mord&quot;&gt;2000&lt;/span&gt;&lt;span class=&quot;mpunct&quot;&gt;,&lt;/span&gt;&lt;span style=&quot;margin-right: 0.1667em;&quot; class=&quot;mspace&quot;&gt;&lt;/span&gt;&lt;span class=&quot;mord&quot;&gt;2050&lt;/span&gt;&lt;span class=&quot;mpunct&quot;&gt;,&lt;/span&gt;&lt;span style=&quot;margin-right: 0.1667em;&quot; class=&quot;mspace&quot;&gt;&lt;/span&gt;&lt;span class=&quot;mord&quot;&gt;2100&lt;/span&gt;&lt;span class=&quot;mpunct&quot;&gt;,&lt;/span&gt;&lt;span style=&quot;margin-right: 0.1667em;&quot; class=&quot;mspace&quot;&gt;&lt;/span&gt;&lt;span class=&quot;mord&quot;&gt;2150&lt;/span&gt;&lt;span class=&quot;mpunct&quot;&gt;,&lt;/span&gt;&lt;span style=&quot;margin-right: 0.1667em;&quot; class=&quot;mspace&quot;&gt;&lt;/span&gt;&lt;span class=&quot;mord&quot;&gt;2200&lt;/span&gt;&lt;span class=&quot;mpunct&quot;&gt;,&lt;/span&gt;&lt;span style=&quot;margin-right: 0.1667em;&quot; class=&quot;mspace&quot;&gt;&lt;/span&gt;&lt;span class=&quot;mord&quot;&gt;2250&lt;/span&gt;&lt;span class=&quot;mpunct&quot;&gt;,&lt;/span&gt;&lt;span style=&quot;margin-right: 0.1667em;&quot; class=&quot;mspace&quot;&gt;&lt;/span&gt;&lt;span class=&quot;mord&quot;&gt;2300&lt;/span&gt;&lt;span class=&quot;mclose&quot;&gt;]&lt;/span&gt;&lt;/span&gt;&lt;/span&gt;&lt;/b&gt;&lt;/span&gt;&lt;/span&gt;&lt;/font&gt;" style="text;html=1;align=center;verticalAlign=middle;resizable=0;points=[];autosize=1;strokeColor=none;fillColor=none;" vertex="1" parent="1">
          <mxGeometry x="-571" y="1191" width="443" height="41" as="geometry" />
        </mxCell>
      </root>
    </mxGraphModel>
  </diagram>
</mxfile>
